<?xml version="1.0" standalone="no"?>
<!DOCTYPE svg PUBLIC "-//W3C//DTD SVG 20010904//EN"
 "http://www.w3.org/TR/2001/REC-SVG-20010904/DTD/svg10.dtd">
<svg version="1.0" xmlns="http://www.w3.org/2000/svg"
 width="800.000000pt" height="800.000000pt" viewBox="0 0 800.000000 800.000000"
 preserveAspectRatio="xMidYMid meet">
<metadata>
Created by potrace 1.14, written by Peter Selinger 2001-2017
</metadata>
<g transform="translate(0.000000,800.000000) scale(0.100000,-0.100000)"
fill="#000000" stroke="none">
<path d="M3828 7170 c-389 -45 -798 -175 -1232 -392 -185 -92 -262 -141 -271
-170 -10 -29 21 -56 123 -113 353 -196 464 -316 723 -782 137 -245 208 -355
312 -480 122 -146 234 -239 384 -316 257 -132 538 -152 869 -62 181 49 347
134 373 191 10 22 8 34 -13 80 -69 151 -306 460 -409 535 -56 40 -88 37 -235
-22 -69 -28 -137 -51 -151 -51 -36 -1 -73 20 -167 96 -266 214 -444 435 -517
643 -27 77 -31 101 -31 198 -1 81 4 124 17 162 29 82 32 83 140 9 259 -175
946 -706 1137 -877 363 -326 615 -816 721 -1398 29 -158 49 -201 107 -220 61
-19 108 -7 153 38 46 46 55 94 40 217 -33 270 -204 731 -369 998 l-48 78 30
112 c28 105 30 122 30 306 1 183 -1 201 -26 293 -134 477 -541 805 -1133 912
-106 19 -443 28 -557 15z"/>
<path d="M2668 5246 c-130 -47 -441 -352 -634 -621 -38 -54 -101 -152 -139
-219 l-70 -121 -130 -45 c-158 -55 -240 -93 -331 -153 -256 -170 -401 -383
-476 -701 -18 -77 -21 -122 -21 -291 0 -171 3 -215 22 -305 132 -607 563
-1153 1293 -1636 154 -102 248 -154 276 -154 39 0 45 34 53 270 12 387 46 484
328 944 197 321 253 437 287 598 25 116 25 467 0 582 -43 198 -144 382 -287
525 -90 90 -252 213 -335 254 -63 31 -63 31 -85 11 -45 -40 -219 -368 -219
-413 0 -7 21 -41 46 -75 95 -124 129 -234 129 -416 0 -376 -209 -694 -466
-708 -95 -6 -156 17 -228 84 -159 147 -205 454 -110 739 56 168 139 281 272
369 l85 56 57 130 c167 378 451 754 747 991 48 39 96 85 107 103 68 109 -48
246 -171 202z"/>
<path d="M7119 3888 c-374 -229 -456 -248 -1089 -248 -387 -1 -507 -9 -640
-46 -338 -93 -622 -327 -775 -639 -84 -170 -107 -260 -112 -442 -7 -192 -2
-219 36 -225 81 -12 378 39 548 93 134 43 153 64 183 192 26 117 52 152 144
199 62 32 711 250 916 308 115 33 131 33 153 -2 26 -41 -3 -58 -433 -243 -162
-70 -309 -136 -326 -146 -37 -22 -47 -51 -29 -76 13 -17 16 -17 78 -1 67 17
243 81 537 193 110 42 192 67 220 68 42 2 45 0 48 -25 2 -20 -5 -32 -30 -51
-18 -14 -175 -95 -349 -180 -316 -154 -409 -207 -409 -231 0 -27 38 -49 72
-42 17 3 178 69 357 145 441 188 465 194 459 122 -3 -32 -10 -41 -73 -83 -38
-25 -229 -132 -424 -237 -546 -294 -545 -293 -701 -198 -65 39 -106 57 -128
57 -19 0 -93 -18 -165 -40 -257 -77 -404 -100 -632 -100 -266 0 -481 38 -794
142 -110 36 -171 51 -208 51 -88 0 -131 -46 -117 -126 15 -92 160 -176 424
-245 212 -56 402 -81 675 -89 l220 -6 80 -76 c171 -164 354 -265 568 -313 123
-28 335 -30 457 -4 508 108 923 511 1166 1131 145 373 234 853 238 1286 1 204
-7 212 -145 127z"/>
</g>
</svg>
