<svg width="361" height="342" viewBox="0 0 361 342" fill="none" xmlns="http://www.w3.org/2000/svg">
<g clip-path="url(#clip0_1_319)">
<path d="M361 339.44H117.391V340.491H361V339.44Z" fill="#3F3D56"/>
<path d="M315.537 160.77C316.006 161.321 316.354 161.964 316.558 162.658C316.763 163.352 316.819 164.081 316.724 164.798C316.629 165.516 316.384 166.205 316.005 166.821C315.627 167.438 315.123 167.968 314.527 168.378L289.315 185.687L278.213 193.088C277.583 193.509 276.818 193.679 276.069 193.567C275.319 193.455 274.638 193.068 274.158 192.482C273.878 192.14 273.676 191.741 273.566 191.313C273.455 190.885 273.438 190.439 273.517 190.004C273.596 189.569 273.769 189.157 274.022 188.795C274.276 188.434 274.606 188.131 274.988 187.909L285.74 181.666L304.507 163.794L292.443 150.836L301.379 144.134L315.537 160.77Z" fill="#A0616A"/>
<path d="M256.251 323.752H250.084L246.421 272.815L262.06 272.368L256.251 323.752Z" fill="#A0616A"/>
<path d="M256.698 340.284C255.053 341.034 253.676 334.954 252.289 336.317C248.409 340.13 242.468 340.96 237.289 339.295L239.102 339.275C238.789 339.174 238.5 339.012 238.253 338.796C238.005 338.581 237.803 338.317 237.66 338.022C237.518 337.726 237.436 337.405 237.421 337.077C237.406 336.749 237.458 336.422 237.573 336.114C237.711 335.746 237.936 335.418 238.229 335.156C238.522 334.895 238.874 334.708 239.256 334.613L243.382 333.581L249.861 322.188L256.474 321.741C257.949 323.621 258.978 325.81 259.484 328.145C259.99 330.48 259.96 332.899 259.397 335.221C258.797 337.67 257.87 339.749 256.698 340.284Z" fill="#212121"/>
<path d="M297.313 323.752H291.146L287.483 272.815L303.569 269.688L297.313 323.752Z" fill="#A0616A"/>
<path d="M297.76 340.284C296.116 341.034 294.738 334.954 293.351 336.317C289.471 340.13 283.53 340.96 278.352 339.295L280.164 339.275C279.851 339.174 279.563 339.012 279.315 338.796C279.067 338.581 278.866 338.317 278.723 338.022C278.58 337.726 278.498 337.405 278.483 337.077C278.468 336.749 278.52 336.422 278.635 336.114C278.773 335.746 278.998 335.418 279.292 335.156C279.585 334.895 279.937 334.708 280.318 334.613L284.444 333.581L290.923 322.188L297.984 321.294L298.162 321.586C299.527 323.786 300.407 326.251 300.743 328.818C301.08 331.385 300.865 333.995 300.113 336.472C299.526 338.354 298.726 339.843 297.76 340.284Z" fill="#212121"/>
<path d="M304.306 145.286C298.635 146.075 294.708 149.181 293.109 155.377L282.685 136.129C282.066 134.906 281.91 133.501 282.243 132.172C282.577 130.842 283.378 129.678 284.501 128.891C285.692 128.057 287.157 127.709 288.597 127.92C290.036 128.13 291.34 128.883 292.242 130.025L304.306 145.286Z" fill="#C6002A"/>
<path d="M315.23 267.453C289.883 278.668 263.944 280.048 237.485 272.815C247.147 235.342 258.555 201.458 258.485 173.623L284.4 171.389L288.39 177.715C297.857 192.723 304.392 209.391 307.648 226.834L315.23 267.453Z" fill="#212121"/>
<path d="M272.783 115.985C280.186 115.985 286.187 109.984 286.187 102.581C286.187 95.1776 280.186 89.1763 272.783 89.1763C265.38 89.1763 259.379 95.1776 259.379 102.581C259.379 109.984 265.38 115.985 272.783 115.985Z" fill="#A0616A"/>
<path d="M287.528 126.261L270.996 127.155L268.315 112.41L281.719 110.176L287.528 126.261Z" fill="#A0616A"/>
<path d="M285.74 173.623L267.629 174.134L258.485 175.411C253.997 160.584 250.218 145.792 259.379 133.41L270.102 122.687L286.187 122.24L286.4 122.362C288.955 123.826 290.935 126.116 292.013 128.855C293.092 131.594 293.206 134.619 292.335 137.432C288.343 150.403 285.779 162.652 285.74 173.623Z" fill="#C6002A"/>
<path d="M258.038 215.177L256.915 230.531C256.855 231.353 256.499 232.126 255.914 232.707C255.329 233.289 254.554 233.639 253.731 233.694C253.257 233.725 252.782 233.658 252.335 233.495C251.889 233.333 251.481 233.079 251.138 232.751C250.795 232.422 250.524 232.025 250.343 231.586C250.161 231.147 250.073 230.675 250.085 230.2L250.442 215.177L261.613 172.73L262.06 146.815L274.57 146.368L273.677 176.304L258.038 215.177Z" fill="#A0616A"/>
<path d="M275.911 148.602C270.606 146.445 265.653 147.167 261.166 151.73L261.781 129.849C261.858 128.481 262.426 127.186 263.38 126.203C264.335 125.219 265.612 124.612 266.977 124.493C268.426 124.367 269.869 124.8 271.009 125.703C272.149 126.606 272.901 127.911 273.11 129.351L275.911 148.602Z" fill="#C6002A"/>
<path d="M301.155 162.23H260.049C269.638 136.837 272.731 113.214 260.049 92.9742C260.267 86.8951 268.064 81.6251 274.119 82.2073C281.27 82.8949 290.88 88.15 292.219 95.2082L301.155 162.23Z" fill="#212121"/>
<path d="M170.151 81.0911H168.276V29.7277C168.276 25.8238 167.507 21.9581 166.013 18.3514C164.519 14.7447 162.329 11.4675 159.569 8.70702C156.808 5.94655 153.531 3.75682 149.924 2.26286C146.318 0.768909 142.452 -1.16989e-05 138.548 1.33503e-10H29.7278C25.8239 -8.62023e-06 21.9582 0.768918 18.3515 2.26287C14.7448 3.75683 11.4676 5.94656 8.70711 8.70703C5.94663 11.4675 3.75689 14.7447 2.26293 18.3514C0.768974 21.9582 4.52809e-05 25.8238 4.95911e-05 29.7277V311.511C4.65124e-05 315.415 0.768973 319.281 2.26293 322.887C3.75689 326.494 5.94663 329.771 8.70711 332.532C11.4676 335.292 14.7448 337.482 18.3515 338.976C21.9582 340.47 25.8239 341.239 29.7278 341.239H138.548C142.452 341.239 146.318 340.47 149.924 338.976C153.531 337.482 156.808 335.292 159.569 332.532C162.329 329.771 164.519 326.494 166.013 322.887C167.507 319.281 168.276 315.415 168.276 311.511V117.652H170.151V81.0911Z" fill="#3F3D56"/>
<path d="M139.747 7.73413H125.543C126.196 9.33565 126.445 11.0732 126.269 12.7938C126.092 14.5144 125.495 16.1652 124.531 17.6008C123.566 19.0363 122.263 20.2126 120.737 21.0259C119.21 21.8393 117.507 22.2648 115.777 22.2649H53.4357C51.7061 22.2648 50.0031 21.8393 48.4766 21.0259C46.9502 20.2126 45.6472 19.0363 44.6824 17.6008C43.7177 16.1652 43.1208 14.5144 42.9443 12.7938C42.7678 11.0732 43.0171 9.33565 43.6704 7.73413H30.4032C27.4878 7.73413 24.601 8.30835 21.9075 9.42402C19.214 10.5397 16.7667 12.1749 14.7052 14.2364C12.6437 16.2979 11.0084 18.7453 9.89276 21.4387C8.77708 24.1322 8.20285 27.019 8.20285 29.9344V311.304C8.20285 314.22 8.77708 317.107 9.89275 319.8C11.0084 322.494 12.6437 324.941 14.7052 327.002C16.7667 329.064 19.214 330.699 21.9075 331.815C24.601 332.931 27.4878 333.505 30.4032 333.505H139.747C142.663 333.505 145.55 332.931 148.243 331.815C150.937 330.699 153.384 329.064 155.445 327.002C157.507 324.941 159.142 322.494 160.258 319.8C161.374 317.107 161.948 314.22 161.948 311.304V29.9344C161.948 24.0465 159.609 18.3998 155.445 14.2364C151.282 10.0731 145.635 7.73412 139.747 7.73413Z" fill="white"/>
<path d="M142.747 51.6862H27.4034V150.619H142.747V51.6862Z" fill="#E6E6E6"/>
<path d="M61.6315 171.25C66.2926 171.25 70.0713 167.471 70.0713 162.81C70.0713 158.149 66.2926 154.37 61.6315 154.37C56.9703 154.37 53.1917 158.149 53.1917 162.81C53.1917 167.471 56.9703 171.25 61.6315 171.25Z" fill="#C6002A"/>
<path d="M65.8515 162.107H62.3349V158.59H60.9283V162.107H57.4117V163.514H60.9283V167.03H62.3349V163.514H65.8515V162.107Z" fill="white"/>
<path d="M106.175 171.25C110.836 171.25 114.615 167.471 114.615 162.81C114.615 158.149 110.836 154.37 106.175 154.37C101.514 154.37 97.735 158.149 97.735 162.81C97.735 167.471 101.514 171.25 106.175 171.25Z" fill="#C6002A"/>
<path d="M110.395 163.513V162.107H101.955V163.513H110.395Z" fill="white"/>
<path d="M89.3772 64.0245H80.2621C79.9416 64.0245 79.6343 64.1519 79.4076 64.3785C79.181 64.6051 79.0537 64.9125 79.0537 65.233V69.2339C79.0537 69.5544 79.181 69.8618 79.4076 70.0884C79.6343 70.315 79.9416 70.4424 80.2621 70.4424H81.7726V76.4371H87.8667V70.4424H89.3772C89.6977 70.4424 90.0051 70.315 90.2317 70.0884C90.4584 69.8618 90.5857 69.5544 90.5857 69.2339V65.233C90.5857 64.9125 90.4584 64.6051 90.2317 64.3785C90.0051 64.1519 89.6977 64.0245 89.3772 64.0245Z" fill="#C6002A"/>
<path d="M98.5069 100.641C92.9246 92.4721 90.0708 82.7464 90.3544 72.8566C90.3594 72.6284 90.2854 72.4055 90.1447 72.2257C90.0041 72.046 89.8056 71.9204 89.5829 71.8704V70.1416H79.9562V71.8463H79.8235C79.6938 71.8465 79.5654 71.8722 79.4456 71.922C79.3258 71.9718 79.217 72.0447 79.1254 72.1366C79.0338 72.2284 78.9612 72.3374 78.9117 72.4573C78.8622 72.5772 78.8368 72.7057 78.837 72.8354C78.837 72.8594 78.8379 72.8834 78.8397 72.9073C79.5981 83.4793 77.0372 92.9601 71.1568 101.35C70.8185 101.832 70.6456 102.411 70.6641 102.999L71.7168 135.56C71.7421 136.287 72.0469 136.975 72.5676 137.482C73.0883 137.989 73.7847 138.275 74.5114 138.281H96.2856C97.0206 138.275 97.7242 137.982 98.2465 137.465C98.7688 136.948 99.0686 136.247 99.0819 135.512L99.4875 103.898C99.4996 102.738 99.1575 101.602 98.5069 100.641Z" fill="#212121"/>
<path opacity="0.2" d="M87.4771 65.3282C87.4771 66.0197 87.2024 66.6829 86.7134 67.1718C86.2245 67.6608 85.5613 67.9355 84.8698 67.9355C84.1783 67.9355 83.5152 67.6608 83.0262 67.1718C82.5373 66.6829 82.2626 66.0197 82.2626 65.3282" fill="black"/>
<path d="M95.06 111.456H92.4233C92.1716 109.823 91.3436 108.334 90.0891 107.258C88.8346 106.182 87.2365 105.59 85.5838 105.59C83.931 105.59 82.3329 106.182 81.0784 107.258C79.8239 108.334 78.9959 109.823 78.7441 111.456H76.1073C75.8267 111.456 75.5495 111.517 75.2946 111.634C75.0397 111.751 74.8131 111.922 74.6305 112.135C74.4478 112.348 74.3133 112.598 74.2363 112.868C74.1592 113.138 74.1414 113.421 74.1841 113.698L77.0481 132.314H93.4938L96.9725 113.761C97.0252 113.48 97.0153 113.191 96.9436 112.914C96.8718 112.637 96.74 112.38 96.5574 112.16C96.3748 111.94 96.1459 111.762 95.8871 111.641C95.6283 111.519 95.3459 111.456 95.06 111.456Z" fill="#C6002A"/>
<path d="M142.747 190.943H27.4034V289.876H142.747V190.943Z" fill="#E6E6E6"/>
<path d="M61.6315 310.507C66.2926 310.507 70.0713 306.728 70.0713 302.067C70.0713 297.406 66.2926 293.627 61.6315 293.627C56.9703 293.627 53.1917 297.406 53.1917 302.067C53.1917 306.728 56.9703 310.507 61.6315 310.507Z" fill="#C6002A"/>
<path d="M65.8515 301.364H62.3349V297.847H60.9283V301.364H57.4117V302.77H60.9283V306.287H62.3349V302.77H65.8515V301.364Z" fill="white"/>
<path d="M106.175 310.507C110.836 310.507 114.615 306.728 114.615 302.067C114.615 297.406 110.836 293.627 106.175 293.627C101.514 293.627 97.735 297.406 97.735 302.067C97.735 306.728 101.514 310.507 106.175 310.507Z" fill="#C6002A"/>
<path d="M110.395 302.77V301.364H101.955V302.77H110.395Z" fill="white"/>
<path d="M107.782 261.227L107.846 261.227C110.018 261.245 112.144 260.608 113.949 259.399C115.753 258.191 117.151 256.466 117.961 254.451C120.512 248 121.11 240.941 119.679 234.152C118.248 227.364 114.851 221.147 109.913 216.274C104.974 211.402 98.7116 208.09 91.9046 206.751C85.0975 205.411 78.0469 206.104 71.6307 208.742C65.2144 211.38 59.7159 215.848 55.8199 221.588C51.9239 227.328 49.8024 234.088 49.7197 241.025C49.637 247.962 51.5967 254.77 55.3548 260.601C59.1128 266.433 64.5032 271.03 70.8548 273.821C72.8289 274.695 75.021 274.952 77.1438 274.558C79.2665 274.164 81.2208 273.138 82.7502 271.615C86.0307 268.317 89.9315 265.701 94.2278 263.918C98.524 262.135 103.131 261.221 107.782 261.227Z" fill="white"/>
<path d="M89.6166 250.522C96.0661 250.522 101.294 245.293 101.294 238.844C101.294 232.394 96.0661 227.166 89.6166 227.166C83.1671 227.166 77.9387 232.394 77.9387 238.844C77.9387 245.293 83.1671 250.522 89.6166 250.522Z" fill="#F9A825"/>
</g>
<defs>
<clipPath id="clip0_1_319">
<rect width="361" height="341.239" fill="white"/>
</clipPath>
</defs>
</svg>
