<svg id="svg" xmlns="http://www.w3.org/2000/svg" xmlns:xlink="http://www.w3.org/1999/xlink" width="400" height="400" viewBox="0, 0, 400,400"><g id="svgg"><path id="path0" d="M180.078 0.506 C 57.054 13.842,-24.611 131.483,6.201 250.981 C 33.575 357.147,143.772 421.442,250.981 393.799 C 355.053 366.965,419.339 260.223,395.105 154.495 L 393.359 146.880 374.805 146.878 C 359.454 146.875,356.250 147.063,356.250 147.965 C 356.250 148.564,356.940 151.288,357.783 154.019 C 384.591 240.854,329.962 336.411,240.423 359.308 C 137.118 385.724,35.832 306.856,35.832 200.000 C 35.832 90.457,143.263 10.374,247.070 42.534 L 253.125 44.410 253.125 25.525 L 253.124 6.641 245.117 4.828 C 229.104 1.203,224.391 0.705,203.516 0.433 C 192.344 0.287,181.797 0.320,180.078 0.506 M317.969 33.984 L 317.969 53.125 299.219 53.125 L 280.469 53.125 280.469 67.188 L 280.469 81.250 299.219 81.250 L 317.969 81.250 317.969 100.781 L 317.969 120.313 332.422 120.313 L 346.875 120.313 346.875 100.781 L 346.875 81.250 366.016 81.250 L 385.156 81.250 385.156 67.188 L 385.156 53.125 366.016 53.125 L 346.875 53.125 346.875 33.984 L 346.875 14.844 332.422 14.844 L 317.969 14.844 317.969 33.984 M236.719 130.199 C 209.816 132.210,193.750 145.429,193.750 165.553 C 193.750 175.797,198.746 185.636,207.051 191.750 L 211.500 195.025 207.215 197.269 C 184.454 209.186,179.579 238.998,197.655 255.733 C 218.028 274.594,267.446 274.721,287.356 255.963 C 305.863 238.526,301.192 208.279,278.172 196.495 L 275.484 195.119 277.781 193.500 C 292.664 183.011,296.066 159.572,284.699 145.830 C 275.781 135.048,256.384 128.729,236.719 130.199 M100.781 145.703 L 100.781 160.156 113.281 160.156 L 125.781 160.156 125.781 214.453 L 125.781 268.750 143.750 268.750 L 161.719 268.750 161.719 200.000 L 161.719 131.250 131.250 131.250 L 100.781 131.250 100.781 145.703 M254.821 156.353 C 266.482 162.732,262.980 180.036,249.461 182.844 C 233.534 186.152,221.917 178.486,223.803 165.911 C 225.416 155.154,242.825 149.790,254.821 156.353 M255.279 211.704 C 270.393 218.233,268.511 238.866,252.429 242.956 C 231.178 248.360,214.207 234.981,221.970 218.945 C 226.187 210.232,243.273 206.518,255.279 211.704 " stroke="none" fill="#c6002a" fill-rule="evenodd"></path></g></svg>