<svg width="388" height="305" viewBox="0 0 388 305" fill="none" xmlns="http://www.w3.org/2000/svg">
<g clip-path="url(#clip0_1_315)">
<path d="M182.592 43.2371C182.504 43.622 182.447 44.0133 182.421 44.4072L151.776 62.0862L144.328 57.7981L136.387 68.1937L148.836 77.0664C149.841 77.7832 151.052 78.1544 152.287 78.1243C153.522 78.0942 154.713 77.6645 155.683 76.8996L187.283 51.9699C188.709 52.4978 190.262 52.579 191.736 52.2027C193.209 51.8264 194.533 51.0105 195.531 49.8634C196.53 48.7163 197.155 47.2925 197.324 45.7813C197.494 44.2701 197.199 42.7431 196.479 41.4034C195.76 40.0638 194.649 38.975 193.296 38.2818C191.942 37.5887 190.41 37.3241 188.902 37.5231C187.395 37.7222 185.983 38.3755 184.856 39.3962C183.729 40.4169 182.939 41.7566 182.592 43.2371V43.2371Z" fill="#FFB6B6"/>
<path d="M151.351 60.1342C151.254 59.6833 151.06 59.2586 150.784 58.8892C150.508 58.5197 150.155 58.2143 149.75 57.9936L135.602 50.2849C133.717 48.8629 131.346 48.2461 129.008 48.5698C126.67 48.8935 124.556 50.1313 123.129 52.0117C121.702 53.8921 121.079 56.2616 121.396 58.6006C121.714 60.9396 122.946 63.0572 124.823 64.489L136.162 76.0086C136.486 76.3373 136.877 76.5925 137.308 76.7566C137.739 76.9207 138.2 76.99 138.661 76.9598C139.121 76.9295 139.569 76.8003 139.975 76.5811C140.381 76.3619 140.735 76.0578 141.013 75.6895L150.776 62.7452C151.054 62.3769 151.249 61.953 151.348 61.5024C151.448 61.0518 151.448 60.5852 151.351 60.1342V60.1342Z" fill="#3F3D56"/>
<path d="M126.074 15.3185C124.039 8.83094 119.41 2.88081 113.008 0.687674C106.605 -1.50546 97.2307 1.8354 92.4176 6.63225C83.6134 15.4067 81.4648 45.5499 87.5137 55.0755C88.7168 55.0118 92.8684 54.9647 94.0861 54.9191L95.8086 49.1778V54.8625C105.313 54.5688 115.208 54.7527 125.109 54.9429C125.996 48.1987 128.11 21.806 126.074 15.3185Z" fill="#212121"/>
<path d="M128.798 287.631H137.467L141.591 254.193L128.797 254.194L128.798 287.631Z" fill="#FFB6B6"/>
<path d="M52.9096 282.24L61.2981 284.427L73.7234 253.11L61.3426 249.884L52.9096 282.24Z" fill="#FFB6B6"/>
<path d="M100.683 82.2594L98.7186 87.3665L99.1117 92.4735L137.555 105.789L135.647 83.4379L131.326 78.3302L100.683 82.2594Z" fill="#FFB6B6"/>
<path d="M112.838 36.3C105.255 36.3 99.1077 30.1526 99.1077 22.5695C99.1077 14.9864 105.255 8.83905 112.838 8.83905C120.421 8.83905 126.569 14.9864 126.569 22.5695C126.569 30.1526 120.421 36.3 112.838 36.3Z" fill="#FFB7B7"/>
<path d="M122.273 4.68999C119.634 3.08163 116.613 2.2116 113.523 2.17087C110.433 2.13014 107.39 2.9202 104.71 4.45845C102.03 5.9967 99.8129 8.22664 98.29 10.9151C96.7671 13.6036 95.9944 16.6518 96.0528 19.7411C103.537 21.654 111.513 22.4542 119.965 20.2018L121.897 15.4732L123.036 20.2053C125.622 22.0242 128.118 22.021 130.524 20.1955C130.626 17.1149 129.917 14.0615 128.469 11.3405C127.022 8.61954 124.885 6.32629 122.273 4.68999Z" fill="#212121"/>
<path d="M124.92 304.092H131.072L132.17 298.284L134.982 304.092H151.297C152.079 304.092 152.841 303.842 153.471 303.378C154.101 302.915 154.566 302.262 154.799 301.516C155.031 300.769 155.019 299.968 154.764 299.228C154.509 298.489 154.025 297.851 153.381 297.406L140.352 288.408V282.537L126.648 283.355L124.92 304.092Z" fill="#212121"/>
<path d="M44.2449 296.992L50.1974 298.544L52.7248 293.201L53.9811 299.53L69.7687 303.646C70.5255 303.843 71.3255 303.793 72.052 303.504C72.7784 303.214 73.3933 302.7 73.8068 302.036C74.2203 301.372 74.4109 300.594 74.3506 299.814C74.2903 299.034 73.9823 298.294 73.4717 297.702L63.1338 285.708L64.6148 280.027L51.1476 277.362L44.2449 296.992Z" fill="#212121"/>
<path d="M53.9733 261.212L79.3843 208.985L87.3613 145.418C81.8613 135.204 92.0756 114.42 92.0756 114.42V105.693L131.643 113.158V113.158C139.736 135.231 143.66 158.615 143.217 182.121L141.623 266.619H142.123C142.953 266.619 143.749 266.949 144.336 267.535C144.922 268.122 145.252 268.918 145.252 269.748C145.252 270.578 144.922 271.374 144.336 271.961C143.749 272.548 142.953 272.877 142.123 272.877H126.476C125.646 272.877 124.85 272.548 124.263 271.961C123.676 271.374 123.347 270.578 123.347 269.748C123.347 268.918 123.676 268.122 124.263 267.535C124.85 266.949 125.646 266.619 126.476 266.619H126.88L115.647 159.122L102.587 212.169L71.0244 261.011C71.8294 261.074 72.5789 261.446 73.1153 262.05C73.6516 262.654 73.9332 263.442 73.9008 264.249C73.8684 265.055 73.5246 265.818 72.9415 266.377C72.3584 266.936 71.5816 267.247 70.774 267.245H55.1274C54.3997 267.245 53.6945 266.992 53.1334 266.529C52.5723 266.065 52.1905 265.421 52.0537 264.706C51.917 263.991 52.0339 263.251 52.3843 262.613C52.7348 261.975 53.2967 261.48 53.9734 261.212H53.9733Z" fill="#212121"/>
<path d="M88.4983 119.77H88.4983C88.6283 119.259 88.9166 118.803 89.322 118.466C89.7273 118.129 90.2288 117.93 90.7546 117.896C91.2762 111.933 94.7222 73.6915 94.8533 72.5696L94.8584 72.5222L95.8562 51.2066C95.8925 50.4324 96.2126 49.6988 96.7555 49.1457C97.2984 48.5927 98.026 48.259 98.7994 48.2085L104.07 47.864C104.142 47.8615 104.21 47.8311 104.261 47.7791C104.311 47.7271 104.339 47.6576 104.339 47.5853C104.339 47.0033 104.454 46.4269 104.677 45.8892C104.899 45.3515 105.226 44.8629 105.637 44.4514C106.049 44.0398 106.537 43.7134 107.075 43.4906C107.613 43.2679 108.189 43.1533 108.771 43.1533H124.375C125.385 43.1537 126.361 43.5229 127.119 44.1917C127.877 44.8605 128.364 45.7829 128.49 46.7857C128.497 46.8547 128.53 46.9186 128.582 46.9646C128.634 47.0105 128.701 47.0352 128.771 47.0336L128.772 47.0336C130.545 46.997 132.273 47.5973 133.641 48.7254C135.009 49.8536 135.928 51.4348 136.23 53.1823C138.363 65.5938 142.638 93.7633 140.525 109.424C139.789 114.876 140.123 123.075 140.401 127.637C140.429 128.077 140.369 128.519 140.226 128.937C140.083 129.355 139.858 129.74 139.565 130.071C140.188 130.25 140.716 130.664 141.039 131.226C141.362 131.787 141.454 132.452 141.297 133.08H141.297C141.134 133.724 140.723 134.277 140.153 134.617C139.583 134.958 138.901 135.058 138.257 134.895L90.3139 122.809C89.67 122.647 89.1171 122.236 88.7766 121.666C88.4361 121.096 88.336 120.414 88.4983 119.77V119.77Z" fill="#3F3D56"/>
<path d="M130.668 47.2463C130.674 46.1914 131.054 45.1729 131.74 44.3715C132.427 43.5701 133.374 43.0376 134.415 42.8683L198.477 32.3486C199.091 32.2469 199.72 32.2749 200.323 32.4307L215.336 36.3127L223.951 38.5426L239.848 42.652C240.807 42.9013 241.657 43.462 242.264 44.2462C242.87 45.0304 243.2 45.9937 243.2 46.9852V99.4906C243.195 100.514 242.842 101.505 242.198 102.3C241.553 103.096 240.657 103.647 239.657 103.865L174.406 117.748C174.1 117.814 173.787 117.847 173.474 117.845C173.017 117.846 172.563 117.777 172.128 117.64L133.36 105.397C132.445 105.112 131.647 104.539 131.083 103.764C130.519 102.989 130.221 102.053 130.231 101.094L130.668 47.2463Z" fill="white"/>
<path d="M199.203 36.2044C199.249 36.2044 199.296 36.2104 199.341 36.2223L238.866 46.4437C238.986 46.4747 239.092 46.5447 239.168 46.6426C239.243 46.7405 239.285 46.8607 239.285 46.9845V99.4891C239.284 99.6169 239.24 99.7408 239.16 99.8402C239.079 99.9396 238.967 100.009 238.842 100.036L173.591 113.919C173.496 113.939 173.398 113.934 173.306 113.905L134.538 101.663C134.424 101.627 134.324 101.556 134.254 101.459C134.183 101.362 134.146 101.245 134.148 101.125L134.582 47.2777C134.583 47.1459 134.631 47.0188 134.717 46.9187C134.802 46.8187 134.921 46.7522 135.051 46.7311L199.112 36.2117C199.142 36.2069 199.172 36.2045 199.203 36.2044V36.2044Z" fill="#C6002A"/>
<path d="M130.668 47.2463C130.674 46.1914 131.054 45.1729 131.74 44.3715C132.427 43.5701 133.374 43.0376 134.415 42.8683L198.477 32.3486C199.091 32.2469 199.72 32.2749 200.323 32.4307L215.336 36.3127L223.951 38.5426L239.848 42.652C240.807 42.9013 241.657 43.462 242.264 44.2462C242.87 45.0304 243.2 45.9937 243.2 46.9852V99.4906C243.195 100.514 242.842 101.505 242.198 102.3C241.553 103.096 240.657 103.647 239.657 103.865L174.406 117.748C174.1 117.814 173.787 117.847 173.474 117.845C173.017 117.846 172.563 117.777 172.128 117.64L133.36 105.397C132.445 105.112 131.647 104.539 131.083 103.764C130.519 102.989 130.221 102.053 130.231 101.094L130.668 47.2463ZM133.696 104.331L172.463 116.574C173.016 116.746 173.604 116.774 174.171 116.656L239.426 102.772C240.176 102.609 240.848 102.195 241.33 101.598C241.813 101.001 242.078 100.258 242.081 99.4906V46.9853C242.081 46.2981 241.87 45.6276 241.476 45.0641C241.083 44.5007 240.526 44.0714 239.881 43.8342C239.779 43.7957 239.674 43.7634 239.568 43.7372L222.75 39.3892L212.804 36.8161L200.043 33.5159C199.77 33.4428 199.488 33.4064 199.204 33.4077C199.022 33.4076 198.84 33.4226 198.66 33.4524L134.598 43.9722C134.083 44.0568 133.594 44.2602 133.171 44.5663C132.747 44.8725 132.401 45.273 132.159 45.7361C131.917 46.2056 131.79 46.7256 131.786 47.2538L131.35 101.102C131.342 101.821 131.566 102.523 131.988 103.105C132.411 103.686 133.01 104.116 133.696 104.331V104.331Z" fill="#3F3D56"/>
<path d="M132.159 45.7361C132.203 45.7646 132.251 45.786 132.301 45.7994L151.144 50.8933L157.01 52.4782L173.694 56.9866C173.741 56.9983 173.79 57.0046 173.839 57.0053C173.873 57.0047 173.906 57.0022 173.94 56.9978L241.212 44.7329L241.436 44.6919C241.582 44.6646 241.711 44.5807 241.795 44.4585C241.879 44.3362 241.912 44.1857 241.885 44.0397C241.858 43.8938 241.775 43.7643 241.653 43.6797C241.531 43.595 241.381 43.5621 241.235 43.5881L239.881 43.8342L173.862 55.8717L159.482 51.9859L151.439 49.8119L132.887 44.7963L132.592 44.718C132.465 44.6844 132.329 44.6966 132.21 44.7525C132.091 44.8084 131.995 44.9044 131.939 45.0237C131.925 45.0523 131.914 45.0823 131.906 45.1132C131.875 45.2305 131.883 45.3546 131.929 45.4669C131.975 45.5791 132.055 45.6736 132.159 45.7361Z" fill="#3F3D56"/>
<path d="M173.28 117.976C173.427 117.976 173.569 117.917 173.674 117.814C173.778 117.71 173.838 117.569 173.839 117.421L174.399 56.4511C174.4 56.3027 174.342 56.1599 174.238 56.0541C174.134 55.9482 173.993 55.888 173.844 55.8866H173.839C173.692 55.8866 173.55 55.9448 173.446 56.0486C173.341 56.1524 173.281 56.2934 173.28 56.4409L172.721 117.411C172.719 117.56 172.777 117.702 172.881 117.808C172.985 117.914 173.126 117.974 173.275 117.976H173.28Z" fill="#3F3D56"/>
<path d="M151.144 110.559L157.01 112.143L159.482 51.986L222.567 39.4339C222.629 39.423 222.69 39.408 222.75 39.3891C223.234 39.2511 223.658 38.9527 223.951 38.5426L215.336 36.3127L212.804 36.8161L152.945 48.7231C152.63 48.7852 152.333 48.9147 152.073 49.1026C151.813 49.2906 151.596 49.5325 151.439 49.8119C151.252 50.1363 151.148 110.171 151.144 110.559Z" fill="#3F3D56"/>
<path d="M153.772 76.2593C153.472 76.5158 153.193 76.7957 152.937 77.0962L117.797 72.9922L114.379 65.1061L101.803 68.7082L106.497 83.257C106.876 84.4324 107.626 85.453 108.635 86.1657C109.643 86.8784 110.856 87.2447 112.09 87.2096L152.324 86.0659C153.153 87.3406 154.351 88.3326 155.758 88.91C157.165 89.4874 158.714 89.6229 160.2 89.2983C161.685 88.9737 163.037 88.2046 164.075 87.0931C165.112 85.9816 165.787 84.5805 166.009 83.0761C166.232 81.5718 165.99 80.0354 165.318 78.6714C164.646 77.3075 163.574 76.1805 162.245 75.4405C160.917 74.7005 159.395 74.3825 157.881 74.5287C156.367 74.675 154.934 75.2786 153.772 76.2593V76.2593Z" fill="#FFB6B6"/>
<path d="M118.62 71.1721C118.811 70.7523 118.91 70.2961 118.908 69.8348C118.907 69.3735 118.806 68.9179 118.613 68.499L111.861 53.8698C111.198 51.6046 109.664 49.6948 107.594 48.5592C105.525 47.4236 103.09 47.155 100.823 47.8121C98.556 48.4693 96.6421 49.9986 95.501 52.0648C94.3599 54.131 94.0846 56.5654 94.7357 58.8342L96.9593 74.8448C97.0228 75.3018 97.184 75.7396 97.432 76.1286C97.6799 76.5176 98.0088 76.8486 98.3963 77.099C98.7837 77.3495 99.2205 77.5134 99.677 77.5798C100.134 77.6462 100.599 77.6134 101.042 77.4837L116.601 72.924C117.044 72.7945 117.453 72.5709 117.802 72.2686C118.15 71.9662 118.429 71.5922 118.62 71.1721V71.1721Z" fill="#3F3D56"/>
<path d="M0.745184 304.822H386.463C386.66 304.822 386.849 304.743 386.988 304.603C387.127 304.464 387.206 304.274 387.206 304.077C387.206 303.88 387.127 303.691 386.988 303.551C386.849 303.411 386.66 303.332 386.463 303.332H0.745184C0.547542 303.332 0.357971 303.41 0.218217 303.55C0.0784633 303.69 -5.66968e-05 303.879 -5.66968e-05 304.077C-5.66968e-05 304.275 0.0784633 304.464 0.218217 304.604C0.357971 304.744 0.547542 304.822 0.745184 304.822Z" fill="#CACACA"/>
<path d="M216.6 84.1792C216.67 84.1792 216.739 84.1714 216.807 84.156L236.209 79.775C236.452 79.7199 236.663 79.5708 236.795 79.3604C236.928 79.15 236.972 78.8955 236.917 78.6528C236.862 78.4101 236.714 78.199 236.503 78.066C236.293 77.933 236.039 77.8888 235.796 77.9432L216.394 82.3243C216.169 82.3752 215.97 82.5073 215.836 82.6954C215.702 82.8834 215.642 83.1143 215.668 83.3438C215.693 83.5734 215.802 83.7854 215.974 83.9395C216.146 84.0937 216.369 84.179 216.6 84.1792V84.1792Z" fill="white"/>
</g>
<defs>
<clipPath id="clip0_1_315">
<rect width="387.208" height="305" fill="white" transform="matrix(-1 0 0 1 387.208 0)"/>
</clipPath>
</defs>
</svg>
