<svg width="512" height="262" viewBox="0 0 512 262" fill="none" xmlns="http://www.w3.org/2000/svg">
<g clip-path="url(#clip0_1_240)">
<path d="M284.985 64.6581L284.972 64.7474L284.936 65.0054L281.177 91.9804L258.159 100.426L257.799 100.253L244.912 94.1331L238.249 68.566L237.792 66.8109L237.931 66.7575L266.439 56.0471L284.969 64.6479L284.985 64.6581Z" fill="#C6002A"/>
<path d="M257.799 100.253L244.912 94.1331L237.792 66.8109L237.931 66.7575L256.504 74.5933L257.799 100.253Z" fill="#C6002A"/>
<path opacity="0.2" d="M258.122 99.9413L248.32 81.1567L249.579 75.8313L243.649 68.8492L243.145 69.2781L248.857 76.0047L244.59 94.0567L245.235 94.2096L248.087 82.1422L257.534 100.248L258.122 99.9413Z" fill="black"/>
<path d="M284.985 64.989L284.936 65.0054L256.504 74.9247L238.249 68.566L237.792 66.8109L237.931 66.7575L266.439 56.0471L284.969 64.6479L284.972 64.7474L284.985 64.989Z" fill="#3F3D56"/>
<path d="M257 75.4214L251.205 70.9507L252.529 65.9829L269.088 60.0213L280.349 60.6836L284.82 64.4925L285.151 65.4857L257 75.4214Z" fill="#C6002A"/>
<path d="M238.123 66.8109L251.205 66.3137L258.291 63.9086L269.34 60.0212L271.407 57.0409L266.251 56.118L238.123 66.8109Z" fill="#C6002A"/>
<path d="M264.186 61.4815L257.365 63.8751L257.584 64.5L264.405 62.1063L264.186 61.4815Z" fill="#CCCCCC"/>
<path d="M174.343 22.7505L171.145 38.7385L186.068 49.9306L192.996 29.1456L174.343 22.7505Z" fill="#9F616A"/>
<path d="M186.334 37.4064C194.281 37.4064 200.724 30.964 200.724 23.0169C200.724 15.0698 194.281 8.62735 186.334 8.62735C178.387 8.62735 171.945 15.0698 171.945 23.0169C171.945 30.964 178.387 37.4064 186.334 37.4064Z" fill="#9F616A"/>
<path d="M155.157 132.044C155.223 136.687 175.442 188.355 172.635 195.083C168.21 199.606 158.691 223.684 154.624 230.107C154.091 230.106 151.426 238.101 151.426 238.101C151.426 238.101 157.822 248.226 164.75 243.963C173.462 223.473 195.279 212.046 195.665 185.341C196.718 193.777 199.826 247.926 199.826 247.926C199.826 247.926 199.23 248.18 212.652 249.466C214.736 218.038 223.252 164.569 204.187 130.978C198.326 128.314 155.157 132.044 155.157 132.044Z" fill="#212121"/>
<path d="M199.825 246.872C199.202 248.071 194.734 259.131 198.8 260.24C203.489 261.518 208.035 259.726 208.035 259.726C208.035 259.726 216.244 262.292 221.267 259.032C223.612 256.687 223.079 254.555 221.96 253.01C221.392 252.249 220.664 251.621 219.827 251.17C218.991 250.719 218.066 250.456 217.118 250.4C214.568 250.218 213.759 249.746 213.467 248.578C213.041 246.872 199.825 246.872 199.825 246.872Z" fill="#212121"/>
<path d="M155.974 237.214C155.974 237.214 144.519 240.832 146.931 245.052C148.497 247.667 150.784 249.776 153.517 251.125C153.517 251.125 155.906 260.974 162.538 260.974C165.854 260.974 166.984 259.09 167.285 257.206C167.422 256.266 167.351 255.307 167.079 254.397C166.806 253.487 166.338 252.647 165.707 251.936C164.033 250.005 163.795 249.098 164.414 248.066C165.318 246.559 155.974 237.214 155.974 237.214Z" fill="#212121"/>
<path d="M206.855 133.604C206.855 133.604 204.721 137.868 196.194 136.267C187.667 134.672 154.093 136.267 154.093 136.267C154.093 136.267 155.956 98.1632 151.692 75.2454C147.429 52.3276 164.216 39.2706 164.216 39.2706L169.546 33.9401C174.877 33.4116 186.133 49.9522 186.133 49.9522C189.837 50.573 193.295 66.3184 196.245 81.2172C196.42 82.0689 196.584 82.9103 196.748 83.7517C198.108 90.6983 200.001 98.4299 201.135 105.371C201.217 105.864 201.294 106.351 201.365 106.839C202.713 115.853 204.546 124.788 206.855 133.604V133.604Z" fill="#E6E6E6"/>
<path d="M169.5 14.0571C169.5 14.0571 166.81 8.13832 173.805 5.44797C173.805 5.44797 179.724 -4.23731 191.561 2.21955C191.561 2.21955 199.632 5.44796 199.632 14.0571C199.632 22.6662 202.323 24.2804 202.323 24.2804C202.323 24.2804 198.316 20.1702 197.24 16.9418C196.164 13.7134 187.795 12.981 184.566 16.2094C181.338 19.4378 173.267 18.8997 173.267 18.8997L173.805 30.7373C173.805 30.7373 171.115 23.7424 170.039 23.7424C168.962 23.7424 167.886 14.0571 169.5 14.0571Z" fill="#212121"/>
<path opacity="0.2" d="M201.135 105.371C188.421 98.4607 167.828 83.3054 161.184 75.1069C152.426 64.3073 161.979 56.0985 161.979 56.0985C172.809 49.2648 185.759 72.711 185.759 72.711L196.245 81.2173C196.42 82.0689 196.584 82.9103 196.748 83.7517C198.108 90.6983 200.001 98.4299 201.135 105.371Z" fill="black"/>
<path d="M239.086 97.4076C239.086 97.4076 257.987 105.08 261.098 96.4551C264.209 87.8298 246.176 87.9778 246.176 87.9778L239.096 88.981L239.086 97.4076Z" fill="#9F616A"/>
<path d="M159.556 52.5887C159.556 52.5887 150.008 60.8022 158.759 71.5982C167.511 82.3942 207.73 105.462 207.73 105.462L233.928 98.3792L241.342 99.7359L242.74 85.8167L231.818 86.8829L204.092 80.9794L186.413 66.6341C186.413 66.6341 170.384 45.7586 159.556 52.5887Z" fill="#E6E6E6"/>
<path opacity="0.2" d="M194.341 151.534L196.011 190.567L191.775 151.534H194.341Z" fill="black"/>
<path d="M344.347 123.613L329.182 127.126C328.009 127.398 326.776 127.202 325.746 126.579C324.715 125.956 323.968 124.956 323.663 123.792V123.792C323.486 123.116 323.464 122.409 323.599 121.724C323.734 121.039 324.023 120.393 324.443 119.836C324.863 119.278 325.404 118.822 326.026 118.504C326.647 118.185 327.332 118.011 328.03 117.994L342.678 117.654L344.347 123.613Z" fill="#FFB9B9"/>
<path d="M342.737 125.838L339.369 115.734L359.56 108.837L354.201 61.6445C363.85 63.3988 368.442 70.9859 368.011 80.7831L370.624 112.986L342.737 125.838Z" fill="#3F3D56"/>
<path d="M356.688 51.2398H389.675V34.8349C389.687 30.4043 387.951 26.1479 384.844 22.9894C383.327 21.4333 381.513 20.1973 379.509 19.3544C377.506 18.5114 375.354 18.0787 373.18 18.0818C368.84 18.0898 364.677 19.8058 361.591 22.8588C358.506 25.9118 356.746 30.0565 356.693 34.3967C356.69 34.5469 356.688 34.6896 356.688 34.8349L356.688 51.2398Z" fill="#212121"/>
<path d="M403.468 244.02L392.924 242.81L380.304 157.586L354.201 243.156L342.792 243.501L355.757 138.225L353.855 114.196L386.182 103.997C409.077 119.98 408.603 176.433 403.468 244.02Z" fill="#212121"/>
<path d="M370.278 47.988C377.152 47.988 382.724 42.4155 382.724 35.5415C382.724 28.6675 377.152 23.095 370.278 23.095C363.404 23.095 357.831 28.6675 357.831 35.5415C357.831 42.4155 363.404 47.988 370.278 47.988Z" fill="#FFB9B9"/>
<path d="M382.724 58.0143L361.634 63.5461C365.188 56.7128 366.325 50.3339 364.4 44.5306L379.267 42.1105C378.311 47.6596 379.551 53.3628 382.724 58.0143V58.0143Z" fill="#FFB9B9"/>
<path d="M389.812 108.665C377.983 116.187 364.204 124.829 354.028 116.444L349.188 92.9336C345.341 89.5071 347.047 78.9335 352.248 63.8622C352.578 62.9055 353.122 62.0366 353.838 61.3214C354.554 60.6061 355.423 60.0633 356.38 59.734L364.4 56.9771C367.955 59.9661 373.781 58.1834 380.65 54.2112L388.602 56.2856L392.059 82.2158C387.068 89.6933 387.94 99.6499 389.812 108.665Z" fill="#3F3D56"/>
<path d="M379.958 118.772L364.793 122.286C363.62 122.558 362.387 122.362 361.356 121.739C360.326 121.116 359.578 120.116 359.273 118.951C359.096 118.276 359.075 117.569 359.21 116.884C359.345 116.199 359.634 115.553 360.054 114.995C360.474 114.437 361.015 113.982 361.636 113.663C362.258 113.344 362.943 113.17 363.641 113.154L378.289 112.813L379.958 118.772Z" fill="#FFB9B9"/>
<path d="M401.636 260.314C399.865 261.122 398.381 256.112 396.887 257.581C392.709 261.687 382.684 260.766 382.684 260.766C382.348 260.658 382.037 260.483 381.77 260.251C381.503 260.019 381.286 259.735 381.132 259.417C380.978 259.099 380.891 258.753 380.874 258.399C380.858 258.046 380.914 257.694 381.038 257.362V257.362C381.186 256.966 381.429 256.612 381.745 256.331C382.06 256.049 382.44 255.848 382.85 255.746L387.294 254.635L394.272 242.363L401.876 241.401L402.068 241.715C403.538 244.084 404.486 246.74 404.849 249.505C405.211 252.27 404.979 255.08 404.169 257.748C403.537 259.774 402.676 259.839 401.636 260.314Z" fill="#212121"/>
<path d="M351.504 260.314C349.733 261.122 348.249 256.112 346.756 257.581C342.577 261.687 332.553 260.766 332.553 260.766C332.216 260.658 331.905 260.483 331.638 260.251C331.371 260.019 331.154 259.735 331.001 259.417C330.847 259.099 330.759 258.753 330.743 258.399C330.726 258.046 330.782 257.694 330.906 257.362V257.362C331.055 256.966 331.297 256.612 331.613 256.331C331.929 256.049 332.308 255.848 332.718 255.746L337.162 254.635L344.14 242.363L351.745 241.401L351.937 241.715C353.407 244.084 354.355 246.74 354.717 249.505C355.079 252.27 354.848 255.08 354.038 257.748C353.405 259.774 352.545 259.839 351.504 260.314Z" fill="#212121"/>
<path d="M384.869 25.1601L381.734 35.1335L354.632 34.6518C354.725 31.1624 355.905 27.789 358.008 25.0029C360.111 22.2168 363.032 20.1572 366.362 19.1117C369.693 18.0663 373.266 18.0872 376.584 19.1716C379.902 20.2559 382.799 22.3496 384.869 25.1601Z" fill="#212121"/>
<path d="M378.348 120.998L374.98 110.894L395.171 103.997L387.533 55.7816C392.199 56.6299 396.399 59.1395 399.357 62.8461C402.315 66.5527 403.83 71.2052 403.622 75.9428L406.234 108.146L378.348 120.998Z" fill="#3F3D56"/>
<path d="M106.959 226.232L106.945 226.321L106.909 226.58L103.15 253.555L80.1324 262L79.7717 261.828L66.8851 255.708L60.2216 230.14L59.765 228.385L59.9041 228.332L88.412 217.622L106.942 226.222L106.959 226.232Z" fill="#C6002A"/>
<path d="M79.7718 261.828L66.8851 255.708L59.765 228.385L59.9041 228.332L78.4768 236.168L79.7718 261.828Z" fill="#C6002A"/>
<path opacity="0.2" d="M80.095 261.515L70.2927 242.731L71.5517 237.406L65.6225 230.423L65.1176 230.852L70.8299 237.579L66.5629 255.631L67.2078 255.784L70.0598 243.717L79.5075 261.822L80.095 261.515Z" fill="black"/>
<path d="M106.959 226.564L106.909 226.58L78.4768 236.499L60.2216 230.14L59.765 228.385L59.9041 228.332L88.412 217.622L106.942 226.222L106.945 226.321L106.959 226.564Z" fill="#3F3D56"/>
<path d="M78.9735 236.996L73.1776 232.525L74.5023 227.557L91.0613 221.596L102.322 222.258L106.793 226.067L107.124 227.06L78.9735 236.996Z" fill="#C6002A"/>
<path d="M60.0959 228.385L73.1776 227.888L80.2643 225.483L91.3133 221.596L93.3798 218.615L88.2237 217.693L60.0959 228.385Z" fill="#C6002A"/>
<path d="M86.1592 223.056L79.3382 225.449L79.5575 226.074L86.3785 223.681L86.1592 223.056Z" fill="#CCCCCC"/>
<path d="M445.062 260.203H134.107V261.229H445.062V260.203Z" fill="#3F3D56"/>
</g>
<defs>
<clipPath id="clip0_1_240">
<rect width="511.154" height="262" fill="white"/>
</clipPath>
</defs>
</svg>
