<svg width="52" height="52" viewBox="0 0 52 52" fill="none" xmlns="http://www.w3.org/2000/svg">
<g clip-path="url(#clip0_5_286)">
<path d="M35.75 32.5C44.7281 32.5 52 25.2281 52 16.25C52 14.6961 51.7766 13.193 51.3703 11.7609C51.0555 10.6641 49.7047 10.4203 48.9023 11.2227L41.1023 19.0227C40.7977 19.3273 40.3812 19.5 39.9547 19.5H34.125C33.2313 19.5 32.5 18.7687 32.5 17.875V12.0453C32.5 11.6187 32.6727 11.2023 32.9773 10.8977L40.7773 3.09766C41.5797 2.29531 41.3258 0.944531 40.2391 0.629687C38.807 0.223437 37.3039 0 35.75 0C26.7719 0 19.5 7.27187 19.5 16.25C19.5 18.1898 19.8453 20.0586 20.4648 21.7852L2.02109 40.2289C0.73125 41.5187 0 43.2758 0 45.1039C0 48.9125 3.0875 52 6.89609 52C8.72422 52 10.4812 51.2687 11.7711 49.9789L30.2148 31.5352C31.9414 32.1648 33.8102 32.5 35.75 32.5ZM8.125 46.3125C6.77422 46.3125 5.6875 45.2258 5.6875 43.875C5.6875 42.5242 6.77422 41.4375 8.125 41.4375C9.47578 41.4375 10.5625 42.5242 10.5625 43.875C10.5625 45.2258 9.47578 46.3125 8.125 46.3125Z" fill="#C7002B"/>
</g>
<defs>
<clipPath id="clip0_5_286">
<rect width="52" height="52" fill="white"/>
</clipPath>
</defs>
</svg>
